<?xml version="1.0" encoding="utf-8"?>
<!-- Generator: Adobe Illustrator 18.1.0, SVG Export Plug-In . SVG Version: 6.00 Build 0)  -->
<svg version="1.1" id="Layer_1" xmlns="http://www.w3.org/2000/svg" xmlns:xlink="http://www.w3.org/1999/xlink" x="0px" y="0px"
	 viewBox="0 0 200 200" enable-background="new 0 0 200 200" xml:space="preserve">
<g>
	<g>
		<path fill="#FFFFFF" d="M194.6,102.5c-2.2,5.8-6.5,7.7-12.5,7.3c-5-0.4-10,0.1-14.9-0.2c-5.2-0.2-8.6-4-8.4-8.6
			c0.2-4.6,3.5-7.7,8.6-7.8c5.1-0.1,10.3,0.3,15.4-0.1c6-0.5,9.9,1.7,11.8,7.3C194.6,101.2,194.6,101.9,194.6,102.5z"/>
		<path fill="#FFFFFF" d="M102.3,153.5c-28.9-0.1-51.7-23.2-51.7-52.3c0.1-28.8,23.4-51.9,52.3-51.7c28.9,0.2,51.9,23.4,51.7,52.3
			C154.4,130.7,131.2,153.6,102.3,153.5z M137.9,101.5c0-19.6-15.6-35.3-35.1-35.3c-20-0.1-35.6,15.4-35.6,35.3
			c0,19.8,15.4,35.3,35,35.3C122.3,136.9,137.9,121.4,137.9,101.5z"/>
		<path fill="#FFFFFF" d="M165.8,173.6c-2.9-1.6-5.2-2.4-6.8-3.9c-4.3-3.9-8.4-8.1-12.4-12.3c-3.7-3.9-3.9-8.5-0.6-12
			c3.3-3.5,8.1-3.7,12-0.1c4.6,4.3,9.4,8.6,13.2,13.5c1.6,2.2,2.1,6.4,1.1,9C171.6,170.2,168.2,171.7,165.8,173.6z"/>
		<path fill="#FFFFFF" d="M151.3,60.7c-1.9-1.5-5.1-2.9-6.1-5.2c-1-2.3-1-6.5,0.4-8.2c4.6-5.6,9.8-10.8,15.4-15.5
			c3.2-2.7,7.3-2.1,10.4,1c3.1,3.1,3.6,7.2,0.9,10.4c-4.7,5.5-10.1,10.5-15.4,15.5C155.7,59.6,153.8,59.8,151.3,60.7z"/>
		<path fill="#FFFFFF" d="M110.6,178.2c0,3.2,0.1,6.3,0,9.5c-0.1,4.5-2.5,7.1-6.8,7.9c-4.3,0.8-8.7-1.4-9.1-5.7
			c-0.6-7.9-0.6-15.9,0.1-23.7c0.4-4.2,4.4-6.1,8.7-5.5c4.3,0.6,6.9,3.2,7.1,7.6C110.7,171.6,110.6,174.9,110.6,178.2z"/>
		<path fill="#FFFFFF" d="M39.1,173.3c-2.2-1.6-5.6-2.8-6.4-5c-1-2.7-1-7.1,0.6-9.1c4.1-5.3,9.3-9.9,14.3-14.5
			c3.4-3.1,8.1-2.6,11.2,0.6c2.7,2.8,3.1,8.1,0.5,10.9c-4.6,5-9.5,9.7-14.4,14.4C43.5,171.8,41.6,172.1,39.1,173.3z"/>
		<path fill="#FFFFFF" d="M61.6,52.6c-1.3,1.7-2.6,5.2-4.8,6c-2.7,1-7,0.8-9.1-0.8c-5.2-4-9.8-9.1-14.3-14c-3-3.2-2.8-7.1-0.2-10.5
			c2.7-3.6,7.2-4.5,10.2-2c6.1,5,11.4,11.1,16.9,16.9C61,48.9,61,50.3,61.6,52.6z"/>
		<path fill="#FFFFFF" d="M94.4,21.3c0-3.2-0.2-6.3,0-9.5c0.3-4.5,3.3-7.3,7.8-7.5c4.7-0.2,8.2,2.5,8.5,7.2c0.3,6.8,0.3,13.7,0,20.5
			c-0.2,4.6-4,7.6-8.5,7.4c-4.2-0.2-7.3-3.2-7.8-7.6c0-0.3,0-0.7,0-1C94.4,27.6,94.4,24.4,94.4,21.3C94.4,21.3,94.4,21.3,94.4,21.3z
			"/>
		<path fill="#FFFFFF" d="M22.8,90.3c3.3,0,6.7-0.2,10,0c4.4,0.3,7.5,3.4,7.7,7.7c0.2,4.5-2.7,8.3-7.3,8.5c-7,0.3-14,0.3-21-0.1
			c-4.4-0.2-7-3.8-6.8-8.3c0.1-4.4,3-7.5,7.4-7.8C16.2,90.2,19.5,90.3,22.8,90.3z"/>
	</g>
</g>
</svg>
