<?xml version="1.0" encoding="utf-8"?>
<!-- Generator: Adobe Illustrator 18.1.0, SVG Export Plug-In . SVG Version: 6.00 Build 0)  -->
<svg version="1.1" id="Layer_1" xmlns="http://www.w3.org/2000/svg" xmlns:xlink="http://www.w3.org/1999/xlink" x="0px" y="0px"
	 viewBox="0 0 960 560" enable-background="new 0 0 960 560" xml:space="preserve">
<g>
	<g>
		<path fill="#FFFFFF" d="M486.4,429.8c-80.9-0.3-144.8-65-144.8-146.4c0.3-80.6,65.5-145.3,146.4-144.8
			c80.9,0.6,145.3,65.5,144.8,146.4C632.3,366,567.4,430.1,486.4,429.8z M586.1,284.2c0-54.9-43.7-98.8-98.3-98.8
			c-56-0.3-99.7,43.1-99.7,98.8c0,55.4,43.1,98.8,98,98.8C542.4,383.3,586.1,339.9,586.1,284.2z"/>
	</g>
</g>
<polygon fill="#FFFFFF" points="631.9,102.2 637.8,114.2 651,116.1 641.5,125.4 643.7,138.6 631.9,132.4 620.1,138.6 622.4,125.4 
	612.8,116.1 626,114.2 "/>
<polygon fill="#FFFFFF" points="273,245.6 284.2,268.2 309.2,271.9 291.1,289.5 295.4,314.4 273,302.7 250.6,314.4 254.9,289.5 
	236.8,271.9 261.8,268.2 "/>
<polygon fill="#FFFFFF" points="676,387.9 689.6,415.5 720.1,419.9 698.1,441.4 703.3,471.7 676,457.4 648.8,471.7 654,441.4 
	631.9,419.9 662.4,415.5 "/>
</svg>
