<?xml version="1.0" encoding="utf-8"?>
<!-- Generator: Adobe Illustrator 18.1.0, SVG Export Plug-In . SVG Version: 6.00 Build 0)  -->
<svg version="1.1" id="Layer_1" xmlns="http://www.w3.org/2000/svg" xmlns:xlink="http://www.w3.org/1999/xlink" x="0px" y="0px"
	 viewBox="0 0 200 200" enable-background="new 0 0 200 200" xml:space="preserve">
<g>
	<path fill="#FFFFFF" d="M93.2,33.3c3,3.3,2.4,7,1.3,10.8c-11.5,39.6,15.9,79.6,56.8,83.5c3.6,0.3,7.1,2.7,10.6,4.1
		c-1.5,3.5-2.3,7.7-4.6,10.5c-18.3,22.4-49.5,30.3-76.5,19.9c-27-10.5-44.2-37.3-42.7-66.4c1.6-30.3,18.5-49.2,45.5-60.4
		c1.5-0.6,3-1.3,4.5-2C89.9,33.3,91.5,33.3,93.2,33.3z M76.5,56.3c-15.7,8.4-25.2,30.3-22.4,50.8c2.8,20.6,19.5,38.2,40.7,42.9
		c14,3.1,36.5-2.9,41.7-11.1C98.7,132.7,72.6,94.7,76.5,56.3z"/>
</g>
</svg>
