<?xml version="1.0" encoding="utf-8"?>
<!-- Generator: Adobe Illustrator 18.1.0, SVG Export Plug-In . SVG Version: 6.00 Build 0)  -->
<svg version="1.1" id="Layer_1" xmlns="http://www.w3.org/2000/svg" xmlns:xlink="http://www.w3.org/1999/xlink" x="0px" y="0px"
	 viewBox="379.7 180 200 200" enable-background="new 379.7 180 200 200" xml:space="preserve">
<path fill="#FFFFFF" d="M379.8,312.4c1.3-5.7,2.9-11.2,6.9-15.8c6.2-7,6.2-7.1,8.8-15.7c9.7-31.7,48.4-43.6,74.4-22.9
	c1.5,1.2,3.8,1.6,5.9,2c2,0.3,4.3-0.4,6.2,0.3c5.2,1.8,8.4,0,12.4-3.5c13.7-12.1,34.7-10.8,46.8,2.4c12.7,13.8,12.4,34.1-0.7,47.6
	c-1,1.1-2,2.9-1.9,4.2c1.5,14.5-8.7,26.6-20.8,29.5c-0.7,0.2-1.4,0.6-2.1,0.8c-37.7,0-75.5,0-113.3,0c-0.8-0.3-1.6-0.7-2.5-0.9
	c-9.8-3-16.1-9.4-19-19.2c-0.5-1.6-0.8-3.2-1.2-4.8C379.8,315,379.8,313.7,379.8,312.4z M499.2,297.6c-0.1-1.1-0.1-2.3-0.2-3.4
	c-0.8-14.3-13.5-25.2-26.9-22.8c-2.7,0.5-4.2-0.2-6.1-1.9c-11.7-10.2-24.8-13.1-39.4-7.1c-14,5.8-20.7,16.8-21.8,31.4
	c-0.2,2.7-1.2,4-3.6,5.2c-6.8,3.4-10.2,10.5-9,18.3c1,6.7,6.5,12.1,13.9,13.4c2.2,0.4,4.4,0.5,6.6,0.5c31.7,0,63.5,0,95.2,0
	c1.8,0,3.6-0.1,5.4-0.4c9-1.4,15.2-9.1,14.6-17.8c-0.6-9.2-8.1-16.4-17.1-16.4C507,296.6,503.3,297.2,499.2,297.6z M533.8,297.2
	c8.5-8.7,7.2-24-2.6-32.3s-24.8-7.1-32.1,2.6c4.9,4.6,8.2,10.2,10.2,16.6c0.2,0.8,1.6,1.7,2.5,1.7
	C520.9,286.4,528.4,289.7,533.8,297.2z"/>
<path fill="#FFFFFF" d="M518.8,218.7c2.6,2.5,3.4,5.5,3.1,9.1c-0.2,2.8,0.1,5.7-0.1,8.5c-0.2,3.5-2.6,5.8-5.7,5.5
	c-3.3-0.3-5.1-2.2-5.1-5.6s0.2-6.7-0.1-10.1c-0.2-3.1,0.8-5.5,3.2-7.4C515.6,218.7,517.2,218.7,518.8,218.7z"/>
<path fill="#FFFFFF" d="M489.4,250.5c-0.8,1.1-1.6,3.2-3.1,3.9c-1.5,0.7-4.2,0.9-5.3,0c-3.8-3.1-7.4-6.5-10.4-10.4
	c-1-1.3-0.6-4.9,0.5-6.2c1.2-1.3,4.9-2.2,6-1.3c4.1,3.2,7.7,7.2,11.3,11C489,248,489,249,489.4,250.5z"/>
<path fill="#FFFFFF" d="M562.9,324.8c-0.8,1-1.7,3.1-3.2,3.7s-4.2,0.6-5.3-0.4c-3.7-3-7.2-6.4-10.1-10.2c-1-1.3-0.6-4.9,0.5-6.2
	c1.1-1.3,4.9-2.2,6-1.4c4.1,3.2,7.7,7.2,11.4,10.9C562.7,321.8,562.6,323,562.9,324.8z"/>
<path fill="#FFFFFF" d="M563.1,240.3c0,4.3-10.8,15.4-14,15c-1.8-0.2-4.1-1.5-4.8-3c-0.7-1.5-0.4-4.3,0.6-5.6
	c2.7-3.4,5.9-6.6,9.3-9.3c1.3-1,4.1-1.3,5.7-0.7C561.3,237.2,562.3,239.4,563.1,240.3z"/>
<path fill="#FFFFFF" d="M568.3,288.1c-2.1,0-4.2,0.2-6.2,0c-3.3-0.4-5.3-2.2-5.2-5.6c0.1-3.2,2-5.1,5.1-5.2c4.3-0.2,8.5-0.2,12.8,0
	c3.2,0.1,4.9,2.1,4.9,5.3c0,3.2-1.8,5.1-4.9,5.5C572.7,288.2,570.6,288,568.3,288.1C568.3,288,568.3,288.1,568.3,288.1z"/>
</svg>
