<?xml version="1.0" encoding="utf-8"?>
<!-- Generator: Adobe Illustrator 18.1.0, SVG Export Plug-In . SVG Version: 6.00 Build 0)  -->
<svg version="1.1" id="Layer_1" xmlns="http://www.w3.org/2000/svg" xmlns:xlink="http://www.w3.org/1999/xlink" x="0px" y="0px"
	 viewBox="380.1 180.1 200 200" enable-background="new 380.1 180.1 200 200" xml:space="preserve">
<path fill="#FFFFFF" d="M403.6,345.9c-2.5-1-5.2-1.8-7.6-3.1c-19.1-9.5-21.5-35.8-4.6-48.9c1.6-1.2,3-3.5,3.4-5.6
	c7.4-39.4,50.5-55.7,82-30.9c1.2,1,3.2,1.3,4.7,1.4c3.2,0.2,6.3,0.1,9.8,0.1c0.7-3.5,1.2-7.2,2.2-11c4.4-16.6,15.1-27.3,31.1-33
	c0.7-0.2,1.3-0.5,2-0.6c5.2-1,6.7,0.7,5.6,5.7c-0.9,4.2-2.1,8.4-2.2,12.7c-0.9,23.4,16.2,43.7,39.6,47.5c3.6,0.6,7,2.1,10.5,3.2
	c0,0.8,0,1.7,0,2.5c-7.5,11.6-18.1,18.5-31.5,21.6c0.2,1.7,0.5,3,0.7,4.4c2,15.8-6.8,28.9-22.3,33.1c-0.7,0.2-1.2,0.6-1.8,0.8
	C484.6,345.9,444.1,345.9,403.6,345.9z M507.3,299.6c0-19.5-12.2-30.5-30.8-28.2c-1.2,0.2-2.7-0.8-3.7-1.7
	c-7.3-6.6-15.7-11-25.7-11.3c-22.6-0.8-38.9,14.2-41,37.5c-0.2,1.4-1.2,3.3-2.4,4c-8.3,4.6-12.6,12.7-10.7,21
	c2,8.7,9.2,14.1,19.1,14.1c35.6,0,71.3,0.1,106.9,0c11.2,0,19.6-8.2,19.2-18.6c-0.4-11.1-10.1-19.5-21.3-18.4
	C513.8,298.3,510.7,299,507.3,299.6z M519.2,230.4c-9.9,5-18.2,21.2-16.4,31.7c0.2,1.1,1,2.3,1.8,3c6.7,4.7,11.1,11.2,13.2,19
	c0.7,2.4,2,2.7,4.2,2.8c7.4,0.3,14.1,2.8,19.4,8.2c0.7,0.7,1.6,1.7,2.2,1.6c6.7-0.8,12.7-3.3,18.6-7.9
	C534.6,284.1,515.8,256.4,519.2,230.4z"/>
</svg>
