<?xml version="1.0" encoding="utf-8"?>
<!-- Generator: Adobe Illustrator 18.1.0, SVG Export Plug-In . SVG Version: 6.00 Build 0)  -->
<svg version="1.1" id="Layer_1" xmlns="http://www.w3.org/2000/svg" xmlns:xlink="http://www.w3.org/1999/xlink" x="0px" y="0px"
	 viewBox="0 0 960 560" enable-background="new 0 0 960 560" xml:space="preserve">
<path fill="#FFFFFF" d="M677.4,445.5c-133.3,0-266.6,0-399.8,0c-4.2-1.7-8.1-3.6-12.3-5c-35.6-12.6-57.7-37.8-63.6-74.5
	c-5.9-36.1,5.9-67.5,35.3-90.2c8.1-6.2,11.5-13.2,13.2-22.4c9.5-54.3,38.6-94.9,87.9-119.3c19-9.2,40.6-13.2,61-19.3
	c9.2,0,18.5,0,27.4,0c3.4,1.1,6.7,2.2,10.4,2.8c29.1,4.8,55.2,16,79,33.6c5.9,4.5,14.6,7.6,21.8,7.3c55.7-1.4,99.1,27.7,116.5,80.4
	c2.8,8.7,6.7,10.9,15.1,11.8c49.6,4.8,77.8,30.5,88.5,79.5c0.6,2.5,1.7,5,2.8,7.8c0,7.3,0,14.8,0,22.1c-8.7,17.9-15.7,37-26.6,53.2
	C720.5,432,698.4,438.8,677.4,445.5z M619.4,291.5c0-3.1,0-7.3,0-11.2c-1.4-51.8-46.8-89-98-81.5c-5,0.8-12.3-2-16.5-5.6
	c-24.9-22.1-53.2-36.4-86.8-37.2c-72.2-1.7-125.2,48.4-131.9,124c-0.8,8.1-3.6,11.8-10.4,15.1c-28.3,14.3-41.2,45.9-31.1,74.5
	c9,25.5,31.6,39.8,64.4,40c115.4,0.3,230.7,0,346.1,0c4.5,0,9.2-0.3,13.7-0.8c32.5-5,54.9-32.8,52.4-63.8
	c-2.8-32.2-29.1-57.4-61.3-57.1C646.9,287.6,633.7,290.1,619.4,291.5z"/>
</svg>
