<?xml version="1.0" encoding="utf-8"?>
<!-- Generator: Adobe Illustrator 18.1.0, SVG Export Plug-In . SVG Version: 6.00 Build 0)  -->
<svg version="1.1" id="Layer_1" xmlns="http://www.w3.org/2000/svg" xmlns:xlink="http://www.w3.org/1999/xlink" x="0px" y="0px"
	 viewBox="0 0 960 560" enable-background="new 0 0 960 560" xml:space="preserve">
<path fill="#FFFFFF" d="M398,115.4c9.2,0,18.2,0,27.4,0c3.4,0.8,7,2.2,10.4,2.8c27.4,3.9,52.6,13.2,74.2,30.2
	c11.2,9,22.1,11.2,35.8,11.5c44.5,0.8,79,20.2,100,60.5c4.8,9.2,7.8,19.3,11.8,29.4c25.8,1.7,50.7,6.4,70.6,25.2
	c27.4,26,37.8,72,23.8,107.5c-14.8,37.8-49.8,61.9-90.4,61.9c-120.7,0-241.6,0-362.3,0c-43.7,0-79.5-24.9-92.7-64.1
	c-13.2-39.5,0.6-81.2,34.4-107.5c4.2-3.4,8.1-9.8,9-15.1c10.6-68.9,59.9-122.1,128.2-137.5C384.8,118.7,391.5,117,398,115.4z"/>
</svg>
