<?xml version="1.0" encoding="utf-8"?>
<!-- Generator: Adobe Illustrator 18.1.0, SVG Export Plug-In . SVG Version: 6.00 Build 0)  -->
<svg version="1.1" id="Layer_1" xmlns="http://www.w3.org/2000/svg" xmlns:xlink="http://www.w3.org/1999/xlink" x="0px" y="0px"
	 viewBox="0 0 960 560" enable-background="new 0 0 960 560" xml:space="preserve">
<path fill="#FFFFFF" d="M760,271.9c0,7,0,13.7,0,20.7c-0.8,1.7-2,3.4-2.2,5c-7.3,24.9-26.9,42-52.4,44.5
	c-10.1,1.1-20.7,0.8-30.8,0.3c-7.8-0.3-10.4,2.5-11.2,10.1c-3.6,30-20.2,51.2-47.3,63.8c-6.2,2.8-12.6,4.8-19,7
	c-110,0-220.4,0-330.4,0c-2.8-1.1-5.6-2-8.4-3.1c-28-8.7-46.2-27.2-54.6-55.2c-1.1-3.6-2.2-7-3.4-10.6c0-6.2,0-12.3,0-18.5
	c5.3-21.6,13.7-40.9,32.2-55.2c4.5-3.4,8.1-9.8,9-15.4c10.4-73.9,84.6-128.2,157.9-113.1c21.6,4.5,42,14.6,62.7,21.8
	c10.6-7.8,22.4-18.2,35.8-26c10.1-5.9,21.8-8.1,33-12c8.4,0,16.8,0,25.2,0c20.7,5.6,40.6,12,57.1,26.6c1.7,1.7,5.9,1.1,8.7,1.1
	c35.8-0.3,59.6,15.4,72,48.7c2.2,6.4,5.6,8.7,12.3,9c21.3,1.4,37.5,11.8,47,31.1C755.8,259,757.5,265.7,760,271.9z M549.2,296
	c-0.3-3.4-0.6-7-0.8-10.9c-3.4-42.8-37.8-71.4-79.8-65.8c-6.7,0.8-10.9-0.3-16-5c-60.5-55.7-154-31.1-175.8,45.6
	c-2.5,8.7-2.5,18.2-5,26.9c-1.1,4.2-4.5,9.2-8.1,11.5c-20.4,11.5-31.4,31.6-27.7,53.2c4.2,25.8,24.1,41.7,53.2,42
	c52.1,0.3,103.9,0,156,0c45.4,0,91,0.3,136.4,0c29.7-0.3,51.8-22.7,51.2-50.4c-0.6-28.6-23.5-51-52.6-50.4
	C569.9,292.6,559.8,294.6,549.2,296z M490.9,184.8c2.8,0.8,4.8,1.7,6.4,2c40.9,5.3,67.5,28,79.8,67.2c2.2,7.3,7,8.1,12.6,8.4
	c33.9,2.5,57.1,19,69.2,51.2c1.1,3.1,5.6,6.4,8.7,6.4c10.9,0.8,22.1,0.8,33.3,0c20.4-1.4,36.1-18.8,35.3-38.1
	c-0.6-20.7-17.6-37.5-38.4-37.5c-8.1,0-16.2,1.4-24.4,2c-3.1-38.6-24.1-59.6-57.4-57.4c-7.6,0.6-12.6-1.1-18.2-6.2
	C565.4,155.1,518.6,155.7,490.9,184.8z"/>
<path fill="#FFFFFF" d="M549.2,296c10.6-1.1,21-3.4,31.1-3.4c29.1-0.6,52.1,21.8,52.6,50.4c0.6,27.7-21.8,50.1-51.2,50.4
	c-45.4,0.6-91,0-136.4,0c-52.1,0-103.9,0.3-156,0c-29.1,0-49-16.2-53.2-42c-3.6-21.6,7.6-41.7,27.7-53.2c3.9-2.2,7-7.3,8.1-11.5
	c2.5-8.7,2.5-18.2,5-26.9c21.6-77,115.4-101.4,175.8-45.6c5,4.8,9.2,5.9,16,5c42-5.6,76.4,23,79.8,65.8
	C548.6,288.7,548.9,292.6,549.2,296z"/>
<path fill="#FFFFFF" d="M490.9,184.8c27.7-29.1,74.5-29.7,107-2c5.6,5,10.6,6.7,18.2,6.2c33.3-2.2,54.3,18.8,57.4,57.4
	c8.1-0.8,16.2-2,24.4-2c20.7,0,37.8,16.8,38.4,37.5c0.6,19.3-15.1,36.7-35.3,38.1c-10.9,0.8-22.1,0.6-33.3,0
	c-3.1-0.3-7.6-3.6-8.7-6.4c-12.3-31.9-35.3-48.7-69.2-51.2c-5.6-0.6-10.4-1.1-12.6-8.4c-12.3-39.2-38.9-61.6-79.8-67.2
	C495.4,186.2,493.7,185.6,490.9,184.8z"/>
</svg>
