<?xml version="1.0" encoding="utf-8"?>
<!-- Generator: Adobe Illustrator 18.1.0, SVG Export Plug-In . SVG Version: 6.00 Build 0)  -->
<svg version="1.1" id="Layer_1" xmlns="http://www.w3.org/2000/svg" xmlns:xlink="http://www.w3.org/1999/xlink" x="0px" y="0px"
	 viewBox="0 0 960 560" enable-background="new 0 0 960 560" xml:space="preserve">
<path fill="#FFFFFF" d="M418.7,55.7c19,4.8,38.6,8.4,57.1,14.6c12,3.9,23.8,10.6,33.6,18.5c11.2,9,21.8,12.3,36.1,12
	c50.4-0.8,92.1,29.1,107.8,77.3c3.4,10.6,8.1,13.7,18.8,14.8c54,5.9,86.8,42.3,87.9,96c0.8,49.3-33.9,89.9-84,97.7
	c-3.6,0.6-7.3,0.8-10.9,0.8c-14.3,0.3-21.8-5.3-22.7-16.8c-0.8-12.3,5.6-18.2,21-19.6c35.6-3.1,61-30.2,59.1-62.4
	c-2.2-35.3-29.7-60.5-65.2-59.4c-11.8,0.3-23.5,2.8-36.1,4.2c-0.6-6.2-0.6-12.9-1.7-19.9c-7.3-49.3-48.4-79.8-98-73.4
	c-5.3,0.6-12.3-2.2-16.5-5.9c-45.4-40.6-100.5-48.2-153.4-20.2c-42.3,22.4-60.8,59.9-65,105.8c-0.8,8.7-3.6,13.4-11.8,17.4
	c-23.8,11.8-37,38.4-32.8,63.3c4.5,26.6,24.1,45.4,52.4,49.6c5,0.8,10.1,0.6,15.1,1.7c9.5,1.7,14.6,8.4,14.6,17.4
	c-0.3,9.8-5.6,16.5-15.7,18.2c-38.6,5.9-81.8-17.6-99.1-54.3c-17.6-37.2-9.5-84.6,21.3-110c12.6-10.4,17.9-21.6,21.3-37.2
	c15.7-70.6,72-119.6,143.9-127.7c3.1-0.3,6.2-1.7,9-2.5C409.4,55.7,414.2,55.7,418.7,55.7z"/>
<path fill="#FFFFFF" d="M476.9,504.3c-16.2-13.4-17.1-18.5-6.4-37.2c5.6-9.5,10.9-19.3,16.8-28.6c6.7-10.6,17.9-13.7,27.2-7.6
	c9.8,6.7,12.6,16.5,6.2,26.6c-10.4,16-21.6,31.4-32.8,47C484.2,504.3,480.6,504.3,476.9,504.3z"/>
<path fill="#FFFFFF" d="M377.2,504.3c-16.5-12.6-17.6-18.5-7-37c5.6-9.5,10.6-19.3,16.5-28.6c6.7-10.6,17.9-14,27.2-7.8
	c10.1,6.4,12.6,16.2,6.4,26.3c-10.1,16.2-21.3,31.6-32.2,47.3C384.5,504.3,380.9,504.3,377.2,504.3z"/>
<path fill="#FFFFFF" d="M474.1,407.1c-16.5-0.6-26-14.3-20.2-26.6c7-14.6,15.1-28.3,24.1-41.7c5.9-8.7,15.4-10.1,24.4-4.8
	c8.4,5,12.9,13.4,8.4,22.4c-7.6,15.1-16.2,30-25.5,44C482.8,404,476.4,405.7,474.1,407.1z"/>
<path fill="#FFFFFF" d="M574.1,407.1c-15.7-0.6-25.8-14-20.4-25.5c7-14.8,15.4-29.4,24.6-43.1c5.9-8.7,15.4-9.8,24.6-4.8
	c8.7,5,12.3,14,8.1,22.4c-7.3,15.1-16.2,29.7-25.8,44C582.8,404.3,576.6,405.7,574.1,407.1z"/>
<path fill="#FFFFFF" d="M374.7,406.8c-17.9,0.3-27.2-14.6-20.2-28.6c6.4-13.2,14-26,21.8-38.4c5.9-9.2,15.1-12,25.2-6.7
	c10.1,5.3,13.2,14.8,8.1,24.6c-7,14-14.8,27.4-23.5,40.3C383.4,402.9,377.2,405.2,374.7,406.8z"/>
</svg>
