<?xml version="1.0" encoding="utf-8"?>
<!-- Generator: Adobe Illustrator 18.1.0, SVG Export Plug-In . SVG Version: 6.00 Build 0)  -->
<svg version="1.1" id="Layer_1" xmlns="http://www.w3.org/2000/svg" xmlns:xlink="http://www.w3.org/1999/xlink" x="0px" y="0px"
	 viewBox="0 0 200 200" enable-background="new 0 0 200 200" xml:space="preserve">
<path d="M200,88.3c-2.2,2.6-4.9,3.3-8.2,3.1c-3.1-0.2-6.3-0.1-9.4,0c-3.5,0-5.4-1.8-5.7-5.1c-0.4-3.2,1.9-5.7,5.4-5.8
	c4.2-0.2,8.4-0.4,12.5,0.1c1.9,0.2,3.7,2,5.5,3C200,85.1,200,86.7,200,88.3z"/>
<path d="M120.2,101.1c-1.6-5.2-2.3-10.6-4.8-15c-5.3-9.2-13.9-12.4-24.4-11.3c-1.4,0.1-3.2-0.4-4.3-1.3
	c-10.5-9.2-22.3-13.3-36.2-9.1c-16.6,5-24.6,16.7-26.1,33.4c-0.2,2.1-0.7,3.4-2.9,4.4c-7.3,3.6-11.1,11.4-9.5,18.8
	c1.7,7.9,8,13.1,16.5,13.6c5.3,0.3,8.1,3.9,5.7,7.7c-0.7,1.1-2.3,2.2-3.7,2.4C18.4,146.2,6.5,139.3,2,128c-4.6-11.5-1-24.3,8.9-32
	c1.4-1.1,2.7-3.2,3-5c3.2-18,13.2-30.7,30.2-36.9c16.7-6.1,32.4-3,46.4,8c1.1,0.8,2.7,1.2,4.1,1.3c3.7,0.4,7.6,0.4,11.2,1.1
	c2.3,0.4,3.7,0.2,5.4-1.6c9.6-10.2,21.5-13.4,34.7-9.6c13.3,3.8,21.4,13.2,23.8,26.9c1.9,10.8-1,20.5-8.5,28.6
	c-2.1,2.3-3,4.3-2.8,7.5c0.7,15.7-12.1,28.7-27.5,28.4c-3.7-0.1-5.7-1.7-5.7-4.9c-0.1-3.3,1.7-5,5.5-5.2
	c10.3-0.7,17.7-8.3,17.2-17.6c-0.6-10.1-8.4-17.3-18.8-17C126,100.1,122.8,100.8,120.2,101.1z M153.7,100.6
	c8.5-8.9,7.4-23.9-2.1-32.1c-9.9-8.5-25-7.5-31.7,1.2c3.3,6.3,6.3,12.1,9.4,17.9c0.4,0.8,1.6,1.7,2.5,1.7
	C140.8,90,148.4,93,153.7,100.6z"/>
<path d="M94,39.2c4.7-0.1,15.6,10.7,15.1,14.3c-0.2,1.7-1.5,3.9-2.9,4.5c-1.6,0.7-4.4,0.4-5.7-0.6c-3.4-2.7-6.6-5.9-9.3-9.4
	c-1-1.3-1.1-4-0.5-5.7C91.1,40.7,93.2,39.8,94,39.2z"/>
<path d="M182.7,126.2c-0.1,5.3-4.9,8.1-8.4,5.4c-3.8-2.9-7.2-6.5-10.2-10.2c-1.9-2.3-1.5-5.2,1-7.3c2.3-2,4.9-2,7.1,0
	c3.2,2.9,6.2,6,9.1,9.1C182.2,124.2,182.5,125.7,182.7,126.2z"/>
<path d="M78,150.2c-4.7,0.1-7.8-3.4-6.3-6.8c2-4.5,4.5-8.9,7.5-12.7c1-1.3,4.6-1.6,6.5-0.9c2.5,0.8,3.6,3.7,2.3,6.2
	c-2.1,4.2-4.5,8.2-7,12.1C80.3,149.3,78.6,149.8,78,150.2z"/>
<path d="M52.7,177.6c-4.9,0.1-7.6-3.9-5.8-7.6c1.9-4,4.2-7.8,6.6-11.5c1.7-2.5,4.4-2.9,6.9-1.5c2.6,1.4,3.8,3.9,2.4,6.6
	c-2.1,4.2-4.5,8.2-7,12.1C55.1,176.8,53.3,177.3,52.7,177.6z"/>
<path d="M182.7,43.4c0.1,4.8-10.7,15.6-14.2,15.1c-1.6-0.2-3.7-1.3-4.3-2.6c-0.7-1.6-0.7-4.4,0.3-5.7c2.8-3.5,6.1-6.8,9.6-9.6
	c1.3-1,4.1-1.1,5.7-0.5C181.3,40.6,182.2,42.7,182.7,43.4z"/>
<path d="M117.3,133.6c-0.7,2-1,3.1-1.6,4.1c-1.9,3.4-3.8,6.8-5.9,10.1c-1.7,2.7-4.4,3.3-7.1,1.8c-2.7-1.5-3.7-4.1-2.3-7
	c2-3.9,4-7.9,6.8-11.4c1.1-1.4,4.2-2.1,6.1-1.7C114.9,129.8,116.1,132.2,117.3,133.6z"/>
<path d="M81,177.6c-4.8-0.1-7.5-3.9-5.8-7.4c2-4.1,4.3-8.1,6.8-11.8c1.7-2.5,4.4-2.7,7-1.4c2.5,1.3,3.6,3.8,2.4,6.3
	c-2.1,4.3-4.6,8.5-7.2,12.5C83.4,176.9,81.6,177.3,81,177.6z"/>
<path d="M131,33.9c0-2.1,0-4.2,0-6.3c0.1-3.1,1.6-4.9,4.7-5.2c3.3-0.3,5.6,1.2,5.9,4.4c0.4,4.7,0.4,9.4,0,14.1
	c-0.3,3.1-2.7,4.7-6,4.3c-3.1-0.4-4.6-2.3-4.6-5.3C131,37.8,131,35.8,131,33.9z"/>
<path d="M49.5,150.2c-5,0-7.7-4-5.8-7.7c1.9-4,4.2-7.8,6.7-11.5c1.7-2.5,4.4-2.8,6.9-1.4c2.6,1.4,3.6,4,2.3,6.7
	c-2,4.1-4.3,8-6.8,11.8C51.9,149.3,50.1,149.8,49.5,150.2z"/>
</svg>
