<?xml version="1.0" encoding="utf-8"?>
<!-- Generator: Adobe Illustrator 18.1.0, SVG Export Plug-In . SVG Version: 6.00 Build 0)  -->
<svg version="1.1" id="Layer_1" xmlns="http://www.w3.org/2000/svg" xmlns:xlink="http://www.w3.org/1999/xlink" x="0px" y="0px"
	 viewBox="0 0 960 560" enable-background="new 0 0 960 560" xml:space="preserve">
<path fill="#FFFFFF" d="M760,247.2c-6.2,7.3-13.7,9.2-23,8.7c-8.7-0.6-17.6-0.3-26.3,0c-9.8,0-15.1-5-16-14.3
	c-1.1-9,5.3-16,15.1-16.2c11.8-0.6,23.5-1.1,35,0.3c5.3,0.6,10.4,5.6,15.4,8.4C760,238.3,760,242.8,760,247.2z"/>
<path fill="#FFFFFF" d="M536.6,283.1c-4.5-14.6-6.4-29.7-13.4-42c-14.8-25.8-38.9-34.7-68.3-31.6c-3.9,0.3-9-1.1-12-3.6
	c-29.4-25.8-62.4-37.2-101.4-25.5c-46.5,14-68.9,46.8-73.1,93.5c-0.6,5.9-2,9.5-8.1,12.3c-20.4,10.1-31.1,31.9-26.6,52.6
	c4.8,22.1,22.4,36.7,46.2,38.1c14.8,0.8,22.7,10.9,16,21.6c-2,3.1-6.4,6.2-10.4,6.7c-33.9,4.2-67.2-15.1-79.8-46.8
	c-12.9-32.2-2.8-68,24.9-89.6c3.9-3.1,7.6-9,8.4-14c9-50.4,37-86,84.6-103.3c46.8-17.1,90.7-8.4,129.9,22.4
	c3.1,2.2,7.6,3.4,11.5,3.6c10.4,1.1,21.3,1.1,31.4,3.1c6.4,1.1,10.4,0.6,15.1-4.5c26.9-28.6,60.2-37.5,97.2-26.9
	c37.2,10.6,59.9,37,66.6,75.3c5.3,30.2-2.8,57.4-23.8,80.1c-5.9,6.4-8.4,12-7.8,21c2,44-33.9,80.4-77,79.5c-10.4-0.3-16-4.8-16-13.7
	c-0.3-9.2,4.8-14,15.4-14.6c28.8-2,49.6-23.2,48.2-49.3c-1.7-28.3-23.5-48.4-52.6-47.6C552.8,280.3,543.8,282.2,536.6,283.1z
	 M630.4,281.7c23.8-24.9,20.7-66.9-5.9-89.9c-27.7-23.8-70-21-88.8,3.4c9.2,17.6,17.6,33.9,26.3,50.1c1.1,2.2,4.5,4.8,7,4.8
	C594.2,252,615.5,260.4,630.4,281.7z"/>
<path fill="#FFFFFF" d="M463.2,109.8c13.2-0.3,43.7,30,42.3,40c-0.6,4.8-4.2,10.9-8.1,12.6c-4.5,2-12.3,1.1-16-1.7
	c-9.5-7.6-18.5-16.5-26-26.3c-2.8-3.6-3.1-11.2-1.4-16C455.1,114,461,111.4,463.2,109.8z"/>
<path fill="#FFFFFF" d="M711.6,353.4c-0.3,14.8-13.7,22.7-23.5,15.1c-10.6-8.1-20.2-18.2-28.6-28.6c-5.3-6.4-4.2-14.6,2.8-20.4
	c6.4-5.6,13.7-5.6,19.9,0c9,8.1,17.4,16.8,25.5,25.5C710.2,347.8,711,352,711.6,353.4z"/>
<path fill="#FFFFFF" d="M418.4,420.6c-13.2,0.3-21.8-9.5-17.6-19c5.6-12.6,12.6-24.9,21-35.6c2.8-3.6,12.9-4.5,18.2-2.5
	c7,2.2,10.1,10.4,6.4,17.4c-5.9,11.8-12.6,23-19.6,33.9C424.8,418,420.1,419.4,418.4,420.6z"/>
<path fill="#FFFFFF" d="M347.6,497.3c-13.7,0.3-21.3-10.9-16.2-21.3c5.3-11.2,11.8-21.8,18.5-32.2c4.8-7,12.3-8.1,19.3-4.2
	c7.3,3.9,10.6,10.9,6.7,18.5c-5.9,11.8-12.6,23-19.6,33.9C354.3,495,349.2,496.4,347.6,497.3z"/>
<path fill="#FFFFFF" d="M711.6,121.5c0.3,13.4-30,43.7-39.8,42.3c-4.5-0.6-10.4-3.6-12-7.3c-2-4.5-2-12.3,0.8-16
	c7.8-9.8,17.1-19,26.9-26.9c3.6-2.8,11.5-3.1,16-1.4C707.6,113.7,710.2,119.6,711.6,121.5z"/>
<path fill="#FFFFFF" d="M528.4,374.1c-2,5.6-2.8,8.7-4.5,11.5c-5.3,9.5-10.6,19-16.5,28.3c-4.8,7.6-12.3,9.2-19.9,5
	c-7.6-4.2-10.4-11.5-6.4-19.6c5.6-10.9,11.2-22.1,19-31.9c3.1-3.9,11.8-5.9,17.1-4.8C521.7,363.4,525.1,370.2,528.4,374.1z"/>
<path fill="#FFFFFF" d="M426.8,497.3c-13.4-0.3-21-10.9-16.2-20.7c5.6-11.5,12-22.7,19-33c4.8-7,12.3-7.6,19.6-3.9
	c7,3.6,10.1,10.6,6.7,17.6c-5.9,12-12.9,23.8-20.2,35C433.5,495.3,428.5,496.4,426.8,497.3z"/>
<path fill="#FFFFFF" d="M566.8,94.9c0-5.9,0-11.8,0-17.6c0.3-8.7,4.5-13.7,13.2-14.6c9.2-0.8,15.7,3.4,16.5,12.3
	c1.1,13.2,1.1,26.3,0,39.5c-0.8,8.7-7.6,13.2-16.8,12c-8.7-1.1-12.9-6.4-12.9-14.8C566.8,105.8,566.8,100.2,566.8,94.9z"/>
<path fill="#FFFFFF" d="M338.6,420.6c-14,0-21.6-11.2-16.2-21.6c5.3-11.2,11.8-21.8,18.8-32.2c4.8-7,12.3-7.8,19.3-3.9
	c7.3,3.9,10.1,11.2,6.4,18.8c-5.6,11.5-12,22.4-19,33C345.3,418,340.3,419.4,338.6,420.6z"/>
</svg>
