<?xml version="1.0" encoding="utf-8"?>
<!-- Generator: Adobe Illustrator 18.1.0, SVG Export Plug-In . SVG Version: 6.00 Build 0)  -->
<svg version="1.1" id="Layer_1" xmlns="http://www.w3.org/2000/svg" xmlns:xlink="http://www.w3.org/1999/xlink" x="0px" y="0px"
	 viewBox="0 0 960 560" enable-background="new 0 0 960 560" xml:space="preserve">
<path fill="#FFFFFF" d="M557.8,284.2c-0.8-7.3-1.4-15.1-2.8-22.7c-7.6-37.2-42.3-61.9-79.8-56c-7.3,1.1-12-0.6-17.4-5.6
	c-32.8-29.7-70.6-38.9-112.8-23.8c-41.4,14.8-64.4,45.1-70,88.5c-1.4,11.5-3.6,19.9-16,26.3c-19,9.8-27.4,34.4-22.1,54.9
	c5.9,22.1,23.5,36.4,47.6,38.4c2.8,0.3,5.6-0.3,8.1,0.3c8.7,1.7,12.9,7.3,12.6,15.7c-0.6,8.1-4.8,13.7-14,14.6
	c-38.1,3.6-72.8-17.4-86-51.8c-13.2-34.4-1.7-72,28.6-95.2c3.6-2.8,7-8.4,7.8-13.2c19-110.6,142.8-157.6,229.6-87.6
	c3.1,2.5,8.1,3.6,12.3,3.9c9.2,0.6,18.5,0.3,28.8,0.3c1.4-8.4,2.5-17.6,4.8-26.6c11.8-49,42-80.9,89.6-96.6c5.3-1.7,14-2.5,17.4,0.3
	c3.1,2.8,2.8,11.8,1.4,17.1c-21.3,82.6,29.1,156.5,113.7,166.6c2.8,0.3,5.3,0.8,8.1,1.4c12.6,2.8,16.8,10.4,8.4,19.9
	c-11.8,13.4-24.6,26-39.2,36.1c-12.6,8.7-28,13.2-42,19.3c0,11.5,1.4,23.8-0.3,35.8c-5,39.5-40.3,70-80.1,70c-12,0-18.2-5-18.8-14.6
	c-0.6-9.8,5.3-15.1,17.4-16c29.7-2,51.8-24.4,50.7-52.1c-0.8-29.4-24.1-51.8-54.3-51.2C578.6,280.8,568.2,283.1,557.8,284.2z
	 M588.6,91.6c-28,14.8-50.1,60.2-44,89.9c0.6,2.5,2.8,5.6,5,7c18.8,13.2,29.7,31.4,37.2,52.6c1.1,3.4,5.9,7,9.2,7.3
	c21.8,2.5,42,8.4,57.7,25.5c1.7,1.7,4.8,3.1,7,2.8c17.9-2.8,34.2-9.2,49-21C626.2,232.1,588.6,176.1,588.6,91.6z"/>
<path fill="#FFFFFF" d="M391,462.6c-1.7,5-2,7.8-3.4,10.1c-6.2,10.9-12,21.8-18.8,32.5c-5.3,8.4-13.4,10.9-22.1,5.6
	c-8.7-5.3-10.4-13.4-5.6-22.1c5.6-10.6,11.8-21,18.2-31.4c4.5-7.6,12-9.8,19-6.7C383.7,453,387.3,458.9,391,462.6z"/>
<path fill="#FFFFFF" d="M466.6,380.5c-2,5.3-2.5,8.7-3.9,11.2c-5.9,10.6-11.8,21.3-18.2,31.4c-5.3,8.4-14.3,10.6-22.1,5.9
	c-8.1-5-10.6-12.6-6.4-21.3c5.9-11.5,11.8-23.2,19.6-33c3.4-4.2,12.3-7,18.2-5.9C458.7,369.6,462.6,376.6,466.6,380.5z"/>
<path fill="#FFFFFF" d="M551.7,381.6c-2.5,6.2-3.6,9.8-5.6,13.2c-5.6,9.8-10.9,19.9-17.1,29.1c-5.3,8.1-13.2,9.5-21.6,5
	c-7.8-4.5-10.9-12-6.7-19.9c6.2-12,12.3-24.6,20.7-35c3.4-4.2,12.9-6.2,18.5-4.8C544.4,370.2,548,377.4,551.7,381.6z"/>
<path fill="#FFFFFF" d="M476.6,464c-3.1,6.4-4.8,10.9-7,14.8c-5,9.2-10.4,18.5-16,27.2c-5.3,7.8-13.2,9.8-21.6,5
	c-7.8-4.5-10.6-12-6.7-19.9c5.9-12.3,12.3-24.6,20.7-35c3.4-4.2,12.9-6.2,18.5-4.8C469.4,452.2,472.7,459.5,476.6,464z"/>
<path fill="#FFFFFF" d="M381.4,381.9c-2.5,5.9-3.6,9.5-5.6,12.9c-5.6,9.8-10.9,19.9-17.1,29.1c-5.3,7.8-13.2,9.8-21.6,5
	c-8.7-4.8-10.4-12.9-6.4-21c5.6-11.5,12.3-22.4,19.3-33.3c4.5-7.3,12.3-9.5,19.3-5.9C374.4,371.3,377.8,377.4,381.4,381.9z"/>
</svg>
