<?xml version="1.0" encoding="utf-8"?>
<!-- Generator: Adobe Illustrator 18.1.0, SVG Export Plug-In . SVG Version: 6.00 Build 0)  -->
<svg version="1.1" id="Layer_1" xmlns="http://www.w3.org/2000/svg" xmlns:xlink="http://www.w3.org/1999/xlink" x="0px" y="0px"
	 viewBox="0 0 200 200" enable-background="new 0 0 200 200" xml:space="preserve">
<path d="M127.8,101.5c-0.3-2.6-0.5-5.4-1-8.1c-2.7-13.3-15.1-22.1-28.5-20c-2.6,0.4-4.3-0.2-6.2-2c-11.7-10.6-25.2-13.9-40.3-8.5
	c-14.8,5.3-23,16.1-25,31.6c-0.5,4.1-1.3,7.1-5.7,9.4c-6.8,3.5-9.8,12.3-7.9,19.6c2.1,7.9,8.4,13,17,13.7c1,0.1,2-0.1,2.9,0.1
	c3.1,0.6,4.6,2.6,4.5,5.6c-0.2,2.9-1.7,4.9-5,5.2c-13.6,1.3-26-6.2-30.7-18.5c-4.7-12.3-0.6-25.7,10.2-34c1.3-1,2.5-3,2.8-4.7
	c6.8-39.5,51-56.3,82-31.3c1.1,0.9,2.9,1.3,4.4,1.4c3.3,0.2,6.6,0.1,10.3,0.1c0.5-3,0.9-6.3,1.7-9.5c4.2-17.5,15-28.9,32-34.5
	c1.9-0.6,5-0.9,6.2,0.1c1.1,1,1,4.2,0.5,6.1c-7.6,29.5,10.4,55.9,40.6,59.5c1,0.1,1.9,0.3,2.9,0.5c4.5,1,6,3.7,3,7.1
	c-4.2,4.8-8.8,9.3-14,12.9c-4.5,3.1-10,4.7-15,6.9c0,4.1,0.5,8.5-0.1,12.8c-1.8,14.1-14.4,25-28.6,25c-4.3,0-6.5-1.8-6.7-5.2
	c-0.2-3.5,1.9-5.4,6.2-5.7c10.6-0.7,18.5-8.7,18.1-18.6c-0.3-10.5-8.6-18.5-19.4-18.3C135.2,100.3,131.5,101.1,127.8,101.5z
	 M138.8,32.7c-10,5.3-17.9,21.5-15.7,32.1c0.2,0.9,1,2,1.8,2.5c6.7,4.7,10.6,11.2,13.3,18.8c0.4,1.2,2.1,2.5,3.3,2.6
	c7.8,0.9,15,3,20.6,9.1c0.6,0.6,1.7,1.1,2.5,1c6.4-1,12.2-3.3,17.5-7.5C152.2,82.9,138.8,62.9,138.8,32.7z"/>
<path d="M68.2,165.2c-0.6,1.8-0.7,2.8-1.2,3.6c-2.2,3.9-4.3,7.8-6.7,11.6c-1.9,3-4.8,3.9-7.9,2c-3.1-1.9-3.7-4.8-2-7.9
	c2-3.8,4.2-7.5,6.5-11.2c1.6-2.7,4.3-3.5,6.8-2.4C65.6,161.8,66.9,163.9,68.2,165.2z"/>
<path d="M95.2,135.9c-0.7,1.9-0.9,3.1-1.4,4c-2.1,3.8-4.2,7.6-6.5,11.2c-1.9,3-5.1,3.8-7.9,2.1c-2.9-1.8-3.8-4.5-2.3-7.6
	c2.1-4.1,4.2-8.3,7-11.8c1.2-1.5,4.4-2.5,6.5-2.1C92.4,132,93.8,134.5,95.2,135.9z"/>
<path d="M125.6,136.3c-0.9,2.2-1.3,3.5-2,4.7c-2,3.5-3.9,7.1-6.1,10.4c-1.9,2.9-4.7,3.4-7.7,1.8c-2.8-1.6-3.9-4.3-2.4-7.1
	c2.2-4.3,4.4-8.8,7.4-12.5c1.2-1.5,4.6-2.2,6.6-1.7C123,132.2,124.3,134.8,125.6,136.3z"/>
<path d="M98.8,165.7c-1.1,2.3-1.7,3.9-2.5,5.3c-1.8,3.3-3.7,6.6-5.7,9.7c-1.9,2.8-4.7,3.5-7.7,1.8c-2.8-1.6-3.8-4.3-2.4-7.1
	c2.1-4.4,4.4-8.8,7.4-12.5c1.2-1.5,4.6-2.2,6.6-1.7C96.2,161.5,97.4,164.1,98.8,165.7z"/>
<path d="M64.8,136.4c-0.9,2.1-1.3,3.4-2,4.6c-2,3.5-3.9,7.1-6.1,10.4c-1.9,2.8-4.7,3.5-7.7,1.8c-3.1-1.7-3.7-4.6-2.3-7.5
	c2-4.1,4.4-8,6.9-11.9c1.6-2.6,4.4-3.4,6.9-2.1C62.3,132.6,63.5,134.8,64.8,136.4z"/>
</svg>
