<?xml version="1.0" encoding="utf-8"?>
<!-- Generator: Adobe Illustrator 18.1.0, SVG Export Plug-In . SVG Version: 6.00 Build 0)  -->
<svg version="1.1" id="Layer_1" xmlns="http://www.w3.org/2000/svg" xmlns:xlink="http://www.w3.org/1999/xlink" x="0px" y="0px"
	 viewBox="380.1 180.1 200 200" enable-background="new 380.1 180.1 200 200" xml:space="preserve">
<g>
	<path fill="#FFFFFF" d="M530.1,253.6c-0.3-3-0.3-6.1-1-9.2c-3-16-17.8-26.4-33.9-24c-2,0.3-4.9-0.5-6.4-1.9
		c-14.8-13.1-31.4-16.9-50-9.4c-17.8,7.2-26.2,21.3-27.5,39.8c-0.2,3.2-1.4,4.6-4,5.9c-9.3,4.8-14,14.7-11.5,24.4
		c2.4,9.5,10.6,15.7,21.2,15.9c9,0.1,18,0,27,0c5.3,0,8.5,2.8,8.4,6.8c-0.1,4.1-3.2,6.6-8.6,6.6c-9.5,0-19.1,0.1-28.6,0
		c-15.8-0.1-28.6-9.1-33.4-23.1c-4.8-14.2,0-28.8,12.4-38.6c1.6-1.3,2.9-3.5,3.2-5.4c3.9-22.3,16.1-38.4,37.2-46.6
		c21.1-8.2,40.8-4.4,58.9,9c1.8,1.4,4.3,2.2,6.6,2.2c21.6-0.2,34.9,8.8,42.6,29.4c1.2,3.1,3.1,3.2,5.6,3.4
		c17.6,1.5,29.3,12.8,31.6,30.2c2.1,16.2-7.1,31.8-22.6,37.2c-3.9,1.4-8.3,2-12.4,2.1c-10.4,0.3-20.9,0.1-31.2,0.1
		c-5.4,0-8.4-2.5-8.4-6.7s3-6.6,8.5-6.6c10.3-0.1,20.4,0,30.7,0c12.6-0.1,21.8-9.1,21.9-21c0-12.3-9.7-22.1-22.2-22
		C539.3,252.1,534.8,253,530.1,253.6z"/>
	<path fill="#FFFFFF" d="M448.2,369c6.9-10.4,13.6-21,20.6-31.2c1.9-2.8,1.9-4.9,0.3-7.6c-2.4-4.4-4.3-9.2-6.6-13.8
		c-1.5-3.1-1.2-5.6,1.6-7.9c13.8-11.8,27.5-23.6,41.9-34.9c-0.6,1.3-1.2,2.5-1.9,3.8c-6.9,11.6-13.8,23.3-20.9,34.8
		c-1.6,2.5-2,4.7-0.2,7.2c1.3,1.7,2,3.7,3.1,5.5c5.4,10.3,5.5,7.7-2.5,14.9c-11.4,10.2-23.1,20-34.6,30.1
		C448.6,369.5,448.4,369.3,448.2,369z"/>
</g>
</svg>
