<?xml version="1.0" encoding="utf-8"?>
<!-- Generator: Adobe Illustrator 18.1.0, SVG Export Plug-In . SVG Version: 6.00 Build 0)  -->
<svg version="1.1" id="Layer_1" xmlns="http://www.w3.org/2000/svg" xmlns:xlink="http://www.w3.org/1999/xlink" x="0px" y="0px"
	 viewBox="0 0 200 200" enable-background="new 0 0 200 200" xml:space="preserve">
<g>
	<path d="M78.2,19.9c3.8,0.7,7.7,1.3,11.5,2.2c8.7,2.1,16.8,5.8,23.7,11.7c2,1.7,4,2.3,6.7,2.2c20.9-0.9,35.7,9.2,42.3,29.1
		c1.2,3.5,3.2,3.4,5.9,3.7c18.7,2.2,30.2,13.8,31.6,32c1.3,16.8-9,31.7-25.1,36.3c-7.6,2.2-15.4,1.5-23.1,1.2
		c-3.8-0.1-6-2.9-5.8-6.7c0.2-3.5,2.3-5.8,6-6c4.1-0.2,8.2,0,12.4-0.1c13.2-0.2,22.3-9.3,22.1-22.1c-0.2-12.4-10-21.6-22.8-21.5
		c-4.3,0-8.5,0.7-13,2.1c-0.3-2.7-0.5-5.2-0.8-7.7c-2.4-17.3-17.3-28.6-34.5-25.9c-2.5,0.4-4.2-0.1-6.2-1.8
		C94.7,35.4,78.4,31.2,59.8,38.3c-18.5,7.1-27.2,21.4-29,40.5c-0.3,2.9-1,4.6-3.8,5.9C18.3,89,13.5,98.4,15,107.6
		c1.6,9.4,8.8,16.3,18.8,17.5c3.9,0.5,7.9,0.3,11.8,0.4c4.1,0.1,6.5,2.2,6.7,6.3c0.2,3.9-2.6,6.6-7,6.6c-5.9-0.1-11.9,0.6-17.7-0.7
		C13.4,134.6,4.2,126,1,111.9c-3.1-14,1.3-25.6,12.6-34.6c2-1.6,3.5-2.9,3.9-5.7C21.6,41.3,46.6,22,71,20.6c0.8,0,1.5-0.5,2.3-0.7
		C74.9,19.9,76.6,19.9,78.2,19.9z"/>
	<path d="M99,180.1c-2.3-2.1-1.8-5.1-2.3-7.7c-2.8-0.1-5.8,4.1-8,0.5c-2.6-4.1,2.8-4.6,4.3-7c-1.7-2.1-6.4-2.6-4.5-6.5
		c2.3-4.5,5.4,0.6,8.3,0c0.1-0.8,0.2-1.6,0.2-2.4c0.1-2.2,0.1-4.5,3.2-4.5c2.7,0,2.9,2.1,3,4.2c0.1,1.7,0,3.7,2.7,2.3
		c2.3-1.2,4.6-2.7,6.1,0.7c1.3,3-1.5,3.8-3.3,5.1c-0.4,0.3-0.8,0.6-1.2,0.9c0.3,1.8,2.1,1.9,3.1,2.8c1.4,1.2,2.3,2.4,1.3,4.2
		c-1,1.9-2.8,2.1-4.2,1.2c-3.5-2.2-5-1.6-4.6,2.7c0.2,1.7-1.5,2.4-2.2,3.7C100.3,180.1,99.7,180.1,99,180.1z"/>
	<path d="M83.3,138.2c-1.2,2.7,0.8,7.2-3.8,7.1c-4.5-0.1-2.1-4.8-3.5-7.1c-0.5,0.1-1.1,0.1-1.5,0.3c-2.2,1-4.5,3.2-6.5,0.3
		c-2-3,0.8-4.3,2.9-5.6c1.3-0.8,1.7-1.5,0.2-2.5c-2.1-1.4-5.4-2.6-3-5.9c2.2-2.9,4.7-0.1,7,0.7c0.1,0,0.3,0,0.7,0
		c1.7-2.1-1-7.2,3.8-7.1c4.4,0.1,2.4,4.6,3.6,7.1c2.7,0,5.6-4.1,7.9-0.5c2.7,4.2-3.1,4.4-4.1,7c1.4,2.3,6.5,2.6,4.2,6.6
		C89.1,142.5,86.2,138.4,83.3,138.2z"/>
	<path d="M111.7,132c-0.6-0.6-0.8-1-1.2-1.3c-2.1-1.3-4.9-2.5-3.2-5.6c1.5-2.9,4-1.4,6-0.2c2,1.1,2.7,0.5,2.6-1.6
		c-0.1-2.4,0-5,3.2-5c2.9,0,2.9,2.5,3,4.7c0,1.6,0.1,3.2,2.5,1.9c2.2-1.2,4.7-2.8,6.2,0.5c1.4,2.9-1.4,3.9-3.3,5.1
		c-0.6,0.4-1.2,0.6-1.9,1c1.1,0.9,1.4,1.2,1.8,1.5c1.9,1.4,5,2.2,3.3,5.5c-1.5,2.9-3.8,1.6-5.9,0.4c-1.8-1-2.7-0.7-2.8,1.5
		c0,2.3,0.1,5.1-3.3,4.9c-3.3-0.2-2.9-3-2.9-5.3c0-1.5-0.5-2.3-2.1-1.5c-2.3,1.1-5,3.3-6.6-0.3C105.5,134.5,109.7,134,111.7,132z"/>
</g>
</svg>
