<?xml version="1.0" encoding="utf-8"?>
<!-- Generator: Adobe Illustrator 18.1.0, SVG Export Plug-In . SVG Version: 6.00 Build 0)  -->
<svg version="1.1" id="Layer_1" xmlns="http://www.w3.org/2000/svg" xmlns:xlink="http://www.w3.org/1999/xlink" x="0px" y="0px"
	 viewBox="0 0 960 560" enable-background="new 0 0 960 560" xml:space="preserve">
<g>
	<path fill="#FFFFFF" d="M419,55.7c10.6,2,21.6,3.6,32.2,6.2c24.4,5.9,47,16.2,66.4,32.8c5.6,4.8,11.2,6.4,18.8,6.2
		c58.5-2.5,100,25.8,118.4,81.5c3.4,9.8,9,9.5,16.5,10.4c52.4,6.2,84.6,38.6,88.5,89.6c3.6,47-25.2,88.8-70.3,101.6
		c-21.3,6.2-43.1,4.2-64.7,3.4c-10.6-0.3-16.8-8.1-16.2-18.8c0.6-9.8,6.4-16.2,16.8-16.8c11.5-0.6,23,0,34.7-0.3
		c37-0.6,62.4-26,61.9-61.9c-0.6-34.7-28-60.5-63.8-60.2c-12,0-23.8,2-36.4,5.9c-0.8-7.6-1.4-14.6-2.2-21.6
		c-6.7-48.4-48.4-80.1-96.6-72.5c-7,1.1-11.8-0.3-17.4-5c-40.3-37-86-48.7-138-28.8c-51.8,19.9-76.2,59.9-81.2,113.4
		c-0.8,8.1-2.8,12.9-10.6,16.5c-24.4,12-37.8,38.4-33.6,64.1c4.5,26.3,24.6,45.6,52.6,49c10.9,1.4,22.1,0.8,33,1.1
		c11.5,0.3,18.2,6.2,18.8,17.6c0.6,10.9-7.3,18.5-19.6,18.5c-16.5-0.3-33.3,1.7-49.6-2c-39.8-8.7-65.5-32.8-74.5-72.2
		c-8.7-39.2,3.6-71.7,35.3-96.9c5.6-4.5,9.8-8.1,10.9-16c11.5-84.8,81.5-138.9,149.8-142.8c2.2,0,4.2-1.4,6.4-2
		C409.7,55.7,414.5,55.7,419,55.7z"/>
	<path fill="#FFFFFF" d="M477.2,504.3c-6.4-5.9-5-14.3-6.4-21.6c-7.8-0.3-16.2,11.5-22.4,1.4c-7.3-11.5,7.8-12.9,12-19.6
		c-4.8-5.9-17.9-7.3-12.6-18.2c6.4-12.6,15.1,1.7,23.2,0c0.3-2.2,0.6-4.5,0.6-6.7c0.3-6.2,0.3-12.6,9-12.6c7.6,0,8.1,5.9,8.4,11.8
		c0.3,4.8,0,10.4,7.6,6.4c6.4-3.4,12.9-7.6,17.1,2c3.6,8.4-4.2,10.6-9.2,14.3c-1.1,0.8-2.2,1.7-3.4,2.5c0.8,5,5.9,5.3,8.7,7.8
		c3.9,3.4,6.4,6.7,3.6,11.8c-2.8,5.3-7.8,5.9-11.8,3.4c-9.8-6.2-14-4.5-12.9,7.6c0.6,4.8-4.2,6.7-6.2,10.4
		C480.8,504.3,479.2,504.3,477.2,504.3z"/>
	<path fill="#FFFFFF" d="M433.2,387c-3.4,7.6,2.2,20.2-10.6,19.9c-12.6-0.3-5.9-13.4-9.8-19.9c-1.4,0.3-3.1,0.3-4.2,0.8
		c-6.2,2.8-12.6,9-18.2,0.8c-5.6-8.4,2.2-12,8.1-15.7c3.6-2.2,4.8-4.2,0.6-7c-5.9-3.9-15.1-7.3-8.4-16.5c6.2-8.1,13.2-0.3,19.6,2
		c0.3,0,0.8,0,2,0c4.8-5.9-2.8-20.2,10.6-19.9c12.3,0.3,6.7,12.9,10.1,19.9c7.6,0,15.7-11.5,22.1-1.4c7.6,11.8-8.7,12.3-11.5,19.6
		c3.9,6.4,18.2,7.3,11.8,18.5C449.5,399,441.4,387.5,433.2,387z"/>
	<path fill="#FFFFFF" d="M512.8,369.6c-1.7-1.7-2.2-2.8-3.4-3.6c-5.9-3.6-13.7-7-9-15.7c4.2-8.1,11.2-3.9,16.8-0.6
		c5.6,3.1,7.6,1.4,7.3-4.5c-0.3-6.7,0-14,9-14c8.1,0,8.1,7,8.4,13.2c0,4.5,0.3,9,7,5.3c6.2-3.4,13.2-7.8,17.4,1.4
		c3.9,8.1-3.9,10.9-9.2,14.3c-1.7,1.1-3.4,1.7-5.3,2.8c3.1,2.5,3.9,3.4,5,4.2c5.3,3.9,14,6.2,9.2,15.4c-4.2,8.1-10.6,4.5-16.5,1.1
		c-5-2.8-7.6-2-7.8,4.2c0,6.4,0.3,14.3-9.2,13.7c-9.2-0.6-8.1-8.4-8.1-14.8c0-4.2-1.4-6.4-5.9-4.2c-6.4,3.1-14,9.2-18.5-0.8
		C495.4,376.6,507.2,375.2,512.8,369.6z"/>
</g>
</svg>
