<?xml version="1.0" encoding="utf-8"?>
<!-- Generator: Adobe Illustrator 18.1.0, SVG Export Plug-In . SVG Version: 6.00 Build 0)  -->
<svg version="1.1" id="Layer_1" xmlns="http://www.w3.org/2000/svg" xmlns:xlink="http://www.w3.org/1999/xlink" x="0px" y="0px"
	 viewBox="0 0 200 200" enable-background="new 0 0 200 200" xml:space="preserve">
<g>
	<path d="M97.7,152.1c-1.6-1.5-3.7-2.3-4.9-4.3c-3.1-5.6,0.6-12.2,7.3-12.3c10-0.2,19.9-0.1,29.9,0c4.4,0,7.5,2.1,8.5,6.4
		c1,4.1-0.8,7.2-4.5,9.3c-0.5,0.3-0.9,0.7-1.4,1C121,152.1,109.4,152.1,97.7,152.1z"/>
	<path d="M36.7,152.1c-0.7-0.5-1.5-0.9-2.2-1.4c-3.5-2.2-4.7-5.4-3.8-9.3c0.9-3.7,3.7-6,7.5-6c10.5-0.2,20.9-0.2,31.4,0
		c3.6,0.1,6.3,2,7.3,5.6c1,3.6,0.3,6.8-2.8,9.2c-0.8,0.6-1.6,1.3-2.4,1.9C60.1,152.1,48.4,152.1,36.7,152.1z"/>
	<path d="M159.6,152.1c-2.3-1.4-4.7-2.5-5.9-5.2c-2.2-5.4,1.3-11.3,7.4-11.5c10.3-0.2,20.6-0.2,30.8,0c3.9,0.1,6.9,2.2,7.8,6.1
		c0.9,3.8-0.3,7.1-3.8,9.2c-0.8,0.5-1.5,0.9-2.3,1.3C182.3,152.1,170.9,152.1,159.6,152.1z"/>
	<path d="M115.2,76.9c4.8,0,9.6-0.1,14.3,0c5.5,0.1,9.3,3.5,9.3,8.3c0,4.7-3.7,8.2-9.2,8.3c-9.6,0.1-19.1,0.1-28.7,0
		c-5.6-0.1-9.2-3.4-9.2-8.3c0-4.8,3.6-8.2,9.1-8.3C105.7,76.9,110.4,76.9,115.2,76.9z"/>
	<path d="M176.6,76.9c4.6,0,9.2,0,13.9,0c6,0.1,9.5,3.2,9.4,8.3c0,5.1-3.3,8.2-9.1,8.2c-9.5,0.1-19.1,0.1-28.6,0
		c-5.7-0.1-9.1-3.4-9.1-8.3c0-4.9,3.6-8.1,9.1-8.2C167.1,76.9,171.8,76.9,176.6,76.9z"/>
	<path d="M53.9,93.6c-4.8,0-9.5,0.1-14.3,0c-5.7-0.2-9.1-3.4-9.1-8.3c0-4.9,3.6-8.2,9.2-8.2c9.5-0.1,19.1-0.1,28.6,0
		c5.7,0.1,9,3.3,9,8.3c0,5-3.4,8.1-9.1,8.2C63.4,93.6,58.7,93.6,53.9,93.6z"/>
	<path d="M84.7,47.9c4.9,0,9.8-0.1,14.8,0c5.3,0.1,8.7,3.4,8.7,8.2c0,4.8-3.4,8-8.8,8.1c-9.8,0.1-19.7,0.1-29.5,0
		c-5.2-0.1-8.8-3.6-8.7-8.2c0-4.6,3.7-8,8.9-8.1C74.9,47.8,79.8,47.9,84.7,47.9z"/>
	<path d="M23.8,106.4c4.9,0,9.8-0.1,14.7,0c5,0.1,8.2,3.3,8.2,8c0,4.8-3.2,8-8.2,8.1c-10.1,0.1-20.3,0.1-30.4,0
		c-5,0-8.2-3.4-8.2-8.1c0-4.7,3.2-7.9,8.2-8C13.4,106.3,18.6,106.4,23.8,106.4z"/>
	<path d="M146.1,106.4c5.1,0,10.1-0.1,15.2,0c4.9,0.1,8.1,3.4,8.1,8.1c0,4.5-3.1,7.9-7.9,7.9c-10.4,0.1-20.9,0.1-31.3,0
		c-4.7-0.1-7.7-3.5-7.6-8.1c0-4.6,3.1-7.8,7.8-7.9C135.7,106.3,140.9,106.4,146.1,106.4z"/>
	<path d="M85.2,106.4c4.9,0,9.8-0.1,14.8,0c5,0.1,8.2,3.3,8.2,8c0,4.6-3.4,8-8.3,8c-10.1,0.1-20.3,0.1-30.4,0
		c-4.9,0-8.3-3.5-8.3-8.1c0-4.6,3.5-7.9,8.4-8C74.7,106.3,79.9,106.4,85.2,106.4z"/>
	<path d="M23.3,64.3c-4.8,0-9.5,0.1-14.3,0c-5.7-0.1-9-3.2-9-8.3c0-4.9,3.2-8,8.7-8c9.8-0.1,19.7-0.1,29.5,0
		c5.5,0.1,8.6,3.2,8.6,8.2c0,4.8-3.4,8-8.7,8.1C33.2,64.3,28.2,64.3,23.3,64.3z"/>
	<path d="M146.1,47.9c4.8,0,9.5-0.1,14.3,0c5.8,0.1,9.1,3.2,9,8.2c-0.1,4.8-3.4,8-8.8,8.1c-9.8,0.1-19.7,0.1-29.5,0
		c-5.3-0.1-8.6-3.4-8.5-8.3c0.1-4.8,3.1-7.8,8.3-8C136,47.8,141.1,47.9,146.1,47.9z"/>
</g>
</svg>
