<?xml version="1.0" encoding="utf-8"?>
<!-- Generator: Adobe Illustrator 18.1.0, SVG Export Plug-In . SVG Version: 6.00 Build 0)  -->
<svg version="1.1" id="Layer_1" xmlns="http://www.w3.org/2000/svg" xmlns:xlink="http://www.w3.org/1999/xlink" x="0px" y="0px"
	 viewBox="0 0 960 560" enable-background="new 0 0 960 560" xml:space="preserve">
<g>
	<path fill="#FFFFFF" d="M473.6,425.9c-4.5-4.2-10.4-6.4-13.7-12c-8.7-15.7,1.7-34.2,20.4-34.4c28-0.6,55.7-0.3,83.7,0
		c12.3,0,21,5.9,23.8,17.9c2.8,11.5-2.2,20.2-12.6,26c-1.4,0.8-2.5,2-3.9,2.8C538.8,425.9,506.3,425.9,473.6,425.9z"/>
	<path fill="#FFFFFF" d="M302.8,425.9c-2-1.4-4.2-2.5-6.2-3.9c-9.8-6.2-13.2-15.1-10.6-26c2.5-10.4,10.4-16.8,21-16.8
		c29.4-0.6,58.5-0.6,87.9,0c10.1,0.3,17.6,5.6,20.4,15.7c2.8,10.1,0.8,19-7.8,25.8c-2.2,1.7-4.5,3.6-6.7,5.3
		C368.3,425.9,335.5,425.9,302.8,425.9z"/>
	<path fill="#FFFFFF" d="M646.9,425.9c-6.4-3.9-13.2-7-16.5-14.6c-6.2-15.1,3.6-31.6,20.7-32.2c28.8-0.6,57.7-0.6,86.2,0
		c10.9,0.3,19.3,6.2,21.8,17.1c2.5,10.6-0.8,19.9-10.6,25.8c-2.2,1.4-4.2,2.5-6.4,3.6C710.4,425.9,678.5,425.9,646.9,425.9z"/>
	<path fill="#FFFFFF" d="M522.6,215.3c13.4,0,26.9-0.3,40,0c15.4,0.3,26,9.8,26,23.2c0,13.2-10.4,23-25.8,23.2
		c-26.9,0.3-53.5,0.3-80.4,0c-15.7-0.3-25.8-9.5-25.8-23.2c0-13.4,10.1-23,25.5-23.2C496,215.3,509.1,215.3,522.6,215.3z"/>
	<path fill="#FFFFFF" d="M694.5,215.3c12.9,0,25.8,0,38.9,0c16.8,0.3,26.6,9,26.3,23.2c0,14.3-9.2,23-25.5,23
		c-26.6,0.3-53.5,0.3-80.1,0c-16-0.3-25.5-9.5-25.5-23.2c0-13.7,10.1-22.7,25.5-23C667.9,215.3,681,215.3,694.5,215.3z"/>
	<path fill="#FFFFFF" d="M350.9,262.1c-13.4,0-26.6,0.3-40,0c-16-0.6-25.5-9.5-25.5-23.2s10.1-23,25.8-23c26.6-0.3,53.5-0.3,80.1,0
		c16,0.3,25.2,9.2,25.2,23.2s-9.5,22.7-25.5,23C377.5,262.1,364.4,262.1,350.9,262.1z"/>
	<path fill="#FFFFFF" d="M437.2,134.1c13.7,0,27.4-0.3,41.4,0c14.8,0.3,24.4,9.5,24.4,23s-9.5,22.4-24.6,22.7
		c-27.4,0.3-55.2,0.3-82.6,0c-14.6-0.3-24.6-10.1-24.4-23c0-12.9,10.4-22.4,24.9-22.7C409.7,133.8,423.4,134.1,437.2,134.1z"/>
	<path fill="#FFFFFF" d="M266.6,297.9c13.7,0,27.4-0.3,41.2,0c14,0.3,23,9.2,23,22.4c0,13.4-9,22.4-23,22.7
		c-28.3,0.3-56.8,0.3-85.1,0c-14,0-23-9.5-23-22.7c0-13.2,9-22.1,23-22.4C237.5,297.6,252.1,297.9,266.6,297.9z"/>
	<path fill="#FFFFFF" d="M609.1,297.9c14.3,0,28.3-0.3,42.6,0c13.7,0.3,22.7,9.5,22.7,22.7c0,12.6-8.7,22.1-22.1,22.1
		c-29.1,0.3-58.5,0.3-87.6,0c-13.2-0.3-21.6-9.8-21.3-22.7c0-12.9,8.7-21.8,21.8-22.1C580,297.6,594.5,297.9,609.1,297.9z"/>
	<path fill="#FFFFFF" d="M438.6,297.9c13.7,0,27.4-0.3,41.4,0c14,0.3,23,9.2,23,22.4c0,12.9-9.5,22.4-23.2,22.4
		c-28.3,0.3-56.8,0.3-85.1,0c-13.7,0-23.2-9.8-23.2-22.7s9.8-22.1,23.5-22.4C409.2,297.6,423.7,297.9,438.6,297.9z"/>
	<path fill="#FFFFFF" d="M265.2,180c-13.4,0-26.6,0.3-40,0c-16-0.3-25.2-9-25.2-23.2c0-13.7,9-22.4,24.4-22.4
		c27.4-0.3,55.2-0.3,82.6,0c15.4,0.3,24.1,9,24.1,23c0,13.4-9.5,22.4-24.4,22.7C293,180,279,180,265.2,180z"/>
	<path fill="#FFFFFF" d="M609.1,134.1c13.4,0,26.6-0.3,40,0c16.2,0.3,25.5,9,25.2,23c-0.3,13.4-9.5,22.4-24.6,22.7
		c-27.4,0.3-55.2,0.3-82.6,0c-14.8-0.3-24.1-9.5-23.8-23.2c0.3-13.4,8.7-21.8,23.2-22.4C580.8,133.8,595.1,134.1,609.1,134.1z"/>
</g>
</svg>
