<?xml version="1.0" encoding="utf-8"?>
<!-- Generator: Adobe Illustrator 18.1.0, SVG Export Plug-In . SVG Version: 6.00 Build 0)  -->
<svg version="1.1" id="Layer_1" xmlns="http://www.w3.org/2000/svg" xmlns:xlink="http://www.w3.org/1999/xlink" x="0px" y="0px"
	 viewBox="190.1 -179.9 479.9 479.9" enable-background="new 190.1 -179.9 479.9 479.9" xml:space="preserve">
<path fill="#FFFFFF" d="M510,60c0-22.1-7.8-40.9-23.4-56.6S452.1-20,430-20s-40.9,7.8-56.6,23.5S350,37.9,350,60s7.8,40.9,23.5,56.6
	C389.1,132.2,408,140,430,140s40.9-7.8,56.6-23.4C502.2,100.9,510,82.1,510,60L510,60z M670,26v69.4c0,2.5-0.8,4.9-2.5,7.2
	c-1.7,2.3-3.8,3.6-6.3,4.1l-57.8,8.7c-4,11.3-8,20.7-12.2,28.4c7.3,10.4,18.4,24.8,33.4,43.1c2.1,2.5,3.1,5.1,3.1,7.8
	c0,2.7-1,5.1-2.8,7.2c-5.6,7.7-16,19-30.9,33.8c-15,14.8-24.8,22.2-29.4,22.2c-2.5,0-5.2-1-8.1-2.8l-43.1-33.8
	c-9.2,4.8-18.6,8.7-28.4,11.9c-3.4,28.3-6.3,47.7-9.1,58.1c-1.5,5.8-5.2,8.7-11.3,8.7h-69.3c-2.9,0-5.5-0.9-7.7-2.6s-3.4-4-3.6-6.7
	l-8.7-57.5c-10.2-3.4-19.6-7.2-28.1-11.5L303.1,255c-2.1,1.8-4.7,2.8-7.8,2.8c-2.9,0-5.5-1.1-7.8-3.4
	c-26.3-23.7-43.5-41.3-51.6-52.5c-1.5-2.1-2.2-4.5-2.2-7.2c0-2.5,0.8-4.9,2.5-7.2c3.1-4.4,8.5-11.3,16-20.8
	c7.5-9.5,13.1-16.8,16.9-22c-5.6-10.4-9.9-20.7-12.8-30.9l-57.2-8.5c-2.7-0.4-4.9-1.7-6.6-3.9c-1.7-2.2-2.5-4.6-2.5-7.3V24.7
	c0-2.5,0.8-4.9,2.5-7.2c1.7-2.3,3.6-3.6,5.9-4.1l58.1-8.7c2.9-9.6,7-19.2,12.2-28.7c-8.3-11.9-19.5-26.3-33.4-43.1
	c-2.1-2.5-3.1-5-3.1-7.5c0-2.1,1-4.5,2.8-7.2c5.4-7.5,15.7-18.7,30.8-33.6c15.1-14.9,24.9-22.3,29.5-22.3c2.7,0,5.4,1.1,8.1,3.1
	l43.1,33.4c9.2-4.8,18.6-8.7,28.4-11.9c3.4-28.3,6.3-47.7,9.1-58.1c1.5-5.8,5.2-8.7,11.3-8.7h69.4c2.9,0,5.5,0.9,7.7,2.6
	c2.2,1.7,3.4,4,3.6,6.7l8.7,57.5c10.2,3.4,19.6,7.2,28.1,11.5l44.4-33.4c1.8-1.8,4.4-2.8,7.5-2.8c2.7,0,5.3,1.1,7.8,3.1
	c26.9,24.8,44.1,42.5,51.6,53.1c1.5,1.7,2.2,4,2.2,6.9c0,2.5-0.8,4.9-2.5,7.2c-3.1,4.4-8.5,11.3-16,20.8c-7.5,9.5-13.1,16.8-16.9,22
	C596.5-14.2,600.7-4,603.9,6l57.2,8.7c2.7,0.4,4.9,1.7,6.6,3.9C669.1,20.8,670,23.3,670,26L670,26z"/>
</svg>
