<?xml version="1.0" encoding="utf-8"?>
<!-- Generator: Adobe Illustrator 18.1.0, SVG Export Plug-In . SVG Version: 6.00 Build 0)  -->
<svg version="1.1" id="Layer_1" xmlns="http://www.w3.org/2000/svg" xmlns:xlink="http://www.w3.org/1999/xlink" x="0px" y="0px"
	 viewBox="27.8 106.3 420 420.1" enable-background="new 27.8 106.3 420 420.1" xml:space="preserve">
<g id="cross">
	<path fill="#FFFFFF" d="M322.9,316.3l120.5-120.5c5.8-5.8,5.8-15.4,0-21.3l-63.8-63.8c-5.8-5.8-15.4-5.8-21.2,0L237.7,231.2
		L117.2,110.6c-5.8-5.8-15.4-5.8-21.2,0l-63.8,63.8c-5.8,5.8-5.8,15.4,0,21.3l120.5,120.5L32.2,436.8c-5.8,5.8-5.8,15.4,0,21.2
		L96,521.9c5.8,5.8,15.4,5.8,21.2,0l120.5-120.4L358.2,522c5.8,5.8,15.4,5.8,21.2,0l63.8-63.8c5.8-5.8,5.8-15.4,0-21.2L322.9,316.3z
		"/>
</g>
</svg>
