<?xml version="1.0" encoding="utf-8"?>
<!-- Generator: Adobe Illustrator 18.1.0, SVG Export Plug-In . SVG Version: 6.00 Build 0)  -->
<svg version="1.1" id="Layer_1" xmlns="http://www.w3.org/2000/svg" xmlns:xlink="http://www.w3.org/1999/xlink" x="0px" y="0px"
	 viewBox="0 0 200 200" enable-background="new 0 0 200 200" xml:space="preserve">
<g>
	<path fill="#FFFFFF" d="M121.1,76.6c0,16.7-0.1,33.3,0.1,50c0,2.4,1.3,5.4,3,7.2c10.9,11.1,14,26.7,7.6,40.5
		c-6.2,13.5-20.5,21.5-35.5,20c-15.3-1.6-27.3-11.9-30.7-27.2c-2.8-12.6,0.5-23.8,9.8-32.9c2.5-2.4,3.4-4.8,3.4-8.2
		c-0.1-33.2-0.1-66.3,0-99.5c0-11.2,7.8-19.6,18.9-20.8c10.6-1.2,20.2,5.6,22.7,16.1c0.5,1.9,0.5,4,0.5,5.9
		C121.1,44,121.1,60.3,121.1,76.6z M108.1,35.2c0-2.6,0.1-5.3,0-7.9c-0.2-4.5-3.8-8-7.9-8.1c-4.2-0.1-7.8,3.3-8.2,7.8
		c-0.1,1.5-0.1,3-0.1,4.5c0,33.8-0.1,67.6,0.1,101.4c0,3.8-0.7,6.1-4.2,8.4c-10.8,6.9-12.9,21.4-5.1,31.5c7.6,9.9,22,11.4,31.5,3.4
		c9.6-8,11.5-23.6,1.8-31.3c-7.3-5.8-8.5-11.9-8.1-19.8c0-0.3-0.4-0.5-0.7-1c-1.5,0-3.3,0.4-4.7-0.1c-1.4-0.5-2.5-2-3.7-3.1
		c1.3-1,2.4-2.4,3.9-2.8c1.6-0.5,3.5-0.1,5.1-0.1c0-5,0-9.2,0-13.9c-2.1,0-4,0.4-5.7-0.1c-1.3-0.4-2.2-1.8-3.3-2.8
		c1.1-1,2-2.6,3.3-2.9c1.8-0.5,3.8-0.1,5.8-0.1c0-4.9,0-9.1,0-13.7c-2.1,0-4.1,0.4-5.7-0.1c-1.3-0.4-2.2-1.9-3.3-2.9
		c1.1-1,2.1-2.5,3.3-2.8c1.8-0.5,3.8-0.1,5.7-0.1c0-5,0-9.2,0-13.7c-2,0-3.8,0.4-5.3-0.1c-1.4-0.5-2.5-2-3.8-3.1
		c1.3-1,2.4-2.5,3.8-3c1.6-0.6,3.5-0.3,5.2-0.4c0-5.7,0-10.9,0-15.7c-3.1-1.8-8.8,1.9-8.7-3.7C99.1,33.5,104.8,37.3,108.1,35.2z"/>
	<path fill="#FFFFFF" d="M85,159.4c10.1,0,19.8,0,30,0c0.2,5.8-2.4,10-7,12.9c-5.2,3.3-10.7,3.3-16,0.1
		C87.3,169.5,84.9,165.3,85,159.4z"/>
</g>
</svg>
