<?xml version="1.0" encoding="utf-8"?>
<!-- Generator: Adobe Illustrator 18.1.0, SVG Export Plug-In . SVG Version: 6.00 Build 0)  -->
<svg version="1.1" id="Layer_1" xmlns="http://www.w3.org/2000/svg" xmlns:xlink="http://www.w3.org/1999/xlink" x="0px" y="0px"
	 viewBox="0 0 200 200" enable-background="new 0 0 200 200" xml:space="preserve">
<g>
	<path fill="#FFFFFF" d="M121.2,77.2c0,16.5,0.1,33,0,49.5c0,3,0.6,5.1,3,7.3c11.8,10.8,14.4,28.7,6.5,42.6
		c-8,14.1-24.3,21.1-39.7,16.9c-15.8-4.3-26.2-18.1-26.1-34.2c0.1-9.8,3.6-18.3,10.7-25c2.5-2.3,3.2-4.7,3.2-7.8
		c-0.1-32.1,0-64.3-0.1-96.4c0-7.8,1.6-14.9,8.2-19.9c6.8-5.2,14.4-6,22.1-2.4c8,3.7,12,10.4,12.1,19.1
		C121.3,43.6,121.2,60.4,121.2,77.2z M108.2,35.2c0-2,0-4.3,0-6.6c0-0.8,0-1.7-0.2-2.5c-0.8-4.2-4.7-7.2-8.6-6.9
		c-4.2,0.3-7.1,3.5-7.4,8c-0.1,1.3,0,2.7,0,4c0,34.3,0,68.7,0,103c0,2.8-0.3,4.7-3.2,6.4c-8.8,5.1-12.8,15.1-10.2,24.4
		c2.7,9.6,11.1,16.2,20.9,16.4c9.6,0.2,18.8-6.4,21.5-15.6c2.9-9.7-0.8-19.7-9.6-25.1c-2.8-1.7-3.3-3.5-3.3-6.4
		c0.1-21.3,0.1-42.7,0.1-64c0-1.8,0-3.5,0-4.6c-3.4-2.2-9.1,1.3-9.2-4c-0.1-5.7,6-1.8,8.9-3.9c0-5.1,0-10.3,0-15
		c-3-2.4-8.7,1.8-8.8-3.7C99,33.4,104.7,37.3,108.2,35.2z"/>
	<path fill="#FFFFFF" d="M103.7,112.5c0,9.2,0.1,18.3,0,27.5c0,2.9,0.6,4.7,3.5,6.2c6.4,3.1,9.3,10.3,7.6,16.9
		c-1.8,6.9-8.1,11.8-15,11.7c-6.5-0.1-12.9-4.9-14.5-11.1c-1.9-7.2,0.9-14.5,7.7-17.7c2.9-1.4,3.2-3.1,3.2-5.7
		c-0.1-18.7-0.1-37.3,0-56c0-1.8,0.7-4.2,1.9-5.1c2.6-2,5.4,0.3,5.4,4.4C103.7,93.1,103.7,102.8,103.7,112.5z"/>
</g>
</svg>
