<?xml version="1.0" encoding="utf-8"?>
<!-- Generator: Adobe Illustrator 18.1.0, SVG Export Plug-In . SVG Version: 6.00 Build 0)  -->
<svg version="1.1" id="Layer_1" xmlns="http://www.w3.org/2000/svg" xmlns:xlink="http://www.w3.org/1999/xlink" x="0px" y="0px"
	 viewBox="0 0 200 200" enable-background="new 0 0 200 200" xml:space="preserve">
<g>
	<path fill="#FFFFFF" d="M121.1,76.9c0,16.5,0.1,33-0.1,49.5c0,3.2,0.8,5.5,3.2,7.8c11.2,10.7,14,26.6,7.6,40.4
		c-6.3,13.5-20.6,21.4-35.6,19.8c-15.2-1.6-27.2-12.2-30.5-27.4c-2.7-12.6,0.6-23.8,10-32.8c2.4-2.3,3.2-4.6,3.2-7.8
		c-0.1-33.2-0.1-66.3,0-99.5c0-9.8,5.8-17.6,14.7-20.4c8.8-2.8,18.8,0.4,23.6,8.4c2.1,3.5,3.5,8,3.6,12.1
		C121.3,43.6,121.1,60.3,121.1,76.9z M108,65.6c-3.4-1.8-9,1.5-9.1-3.7c-0.1-5.6,6-1.9,8.7-3.9c0-5.2,0-10.5,0-15.9
		c-2.2,0-4.1,0.4-5.8-0.1c-1.3-0.4-2.2-1.9-3.2-2.9c1.1-1,2.1-2.4,3.4-2.8c1.8-0.5,3.8-0.1,6-0.1c0-3.3,0.1-6,0-8.6
		c-0.2-4.5-3.7-8.1-7.9-8.2c-4.4-0.1-7.9,3.4-8.2,8.3c-0.1,1.5,0,3,0,4.5c0,33.7-0.1,67.3,0.1,101c0,3.8-0.7,6.1-4.3,8.4
		c-11,7-12.9,21.9-4.8,31.9c8,9.9,22.6,10.9,32,2.3c9.5-8.8,10.1-24.6-0.4-32c-6.5-4.6-6.6-9.6-6.5-15.9c0.1-6.5,0.1-13,0-19.5
		c0-1.3-0.3-2.5-0.4-3.8c-0.3,0.4-0.6,0.7-0.9,1.1c-2.7-1.3-7.7-2.6-7.7-3.9c0.1-5.9,5.8-1.9,8.7-4c0-4,0-8.3,0-12.7
		c-2.4-0.1-4.6,0.1-6.6-0.5c-1-0.3-2.2-2-2.3-3.1c-0.1-0.7,1.4-2.2,2.4-2.4c2-0.5,4.2-0.3,6.5-0.4C107.9,77,108,76,108,75
		C108.1,71.9,108,68.7,108,65.6z"/>
	<path fill="#FFFFFF" d="M96.2,132.5c0-3.3-0.4-6.7,0.2-10c0.3-1.6,2.3-3,3.6-4.5c1.2,1.5,3.3,2.9,3.4,4.5c0.4,6,0.3,12,0.1,18
		c-0.1,2.6,0.5,4.1,3.1,5.4c6.9,3.5,10,10.5,8.1,17.5c-1.7,6.5-7.9,11.3-14.8,11.3c-6.8,0-13.1-4.8-14.8-11.3
		c-1.8-7.2,1.2-13.7,8-17.7c1.4-0.9,2.6-3,2.9-4.8C96.6,138.2,96.2,135.3,96.2,132.5z"/>
</g>
</svg>
