<?xml version="1.0" encoding="utf-8"?>
<!-- Generator: Adobe Illustrator 18.1.0, SVG Export Plug-In . SVG Version: 6.00 Build 0)  -->
<svg version="1.1" id="Layer_1" xmlns="http://www.w3.org/2000/svg" xmlns:xlink="http://www.w3.org/1999/xlink" x="0px" y="0px"
	 viewBox="-16.1 37 200 200" enable-background="new -16.1 37 200 200" xml:space="preserve">
<g>
	<path fill="#FFFFFF" d="M105,113.7c0,16.5,0.1,33-0.1,49.5c0,3.5,1,5.8,3.4,8.2c11.1,10.6,13.8,26.8,7.2,40.4
		c-6.6,13.7-20.7,21.2-36.2,19.4c-14.8-1.7-26.9-12.6-29.8-27.5c-2.4-12.4,0.7-23.5,10-32.4c2.5-2.4,3.4-4.8,3.4-8.2
		c-0.1-33.2-0.1-66.3-0.1-99.5c0-9.3,4.6-16,13.1-19.4c8.3-3.4,16.1-1.8,22.7,4.4c4.5,4.2,6.4,9.5,6.4,15.7
		C105,80.7,105,97.2,105,113.7z M92,72.2c0-2.7,0.2-5.6,0-8.4c-0.4-4.4-4.3-7.9-8.4-7.7c-4,0.2-7.3,3.5-7.7,7.8c-0.1,1.5,0,3,0,4.5
		c0,34.3,0,68.6,0.1,103c0,3-0.8,4.7-3.5,6.3C63.8,183,60,193,62.8,202.3c2.8,9.6,11.4,16.1,21.1,16.1c9.8,0,18.5-6.5,21.2-16
		c2.8-9.6-0.8-19.4-9.6-24.6c-2.9-1.7-3.7-3.7-3.5-6.8c0.2-3.2,0-6.5,0-10c-2.1,0-3.6,0.4-4.7-0.1c-1.7-0.7-3.1-2.1-4.6-3.2
		c1.5-1,2.8-2.2,4.4-2.8c1.4-0.5,3.1-0.3,4.6-0.3c0-4.7,0-9,0-13.6c-2.1,0-4,0.4-5.7-0.1c-1.3-0.4-2.2-1.8-3.3-2.8
		c1.1-1,2-2.6,3.2-3c1.8-0.5,3.8-0.1,5.8-0.1c0-4.9,0-9.1,0-13.7c-2.1,0-4.1,0.4-5.7-0.1c-1.3-0.4-2.2-1.8-3.3-2.8
		c1.1-1,2-2.5,3.3-2.9c1.8-0.5,3.8-0.1,5.8-0.1c0-4.9,0-9.2,0-13.7c-2.1,0-4.1,0.4-5.7-0.1c-1.3-0.4-2.2-1.9-3.3-3
		c1.1-1,2-2.6,3.2-3c1.8-0.6,3.8-0.3,5.8-0.4c0-5.6,0-10.9,0-15.4c-3-2.3-8.8,1.7-8.7-3.9C83,70.6,88.7,74.3,92,72.2z"/>
</g>
</svg>
