<?xml version="1.0" encoding="utf-8"?>
<!-- Generator: Adobe Illustrator 18.1.0, SVG Export Plug-In . SVG Version: 6.00 Build 0)  -->
<svg version="1.1" id="Layer_1" xmlns="http://www.w3.org/2000/svg" xmlns:xlink="http://www.w3.org/1999/xlink" x="0px" y="0px"
	 viewBox="0 0 200 200" enable-background="new 0 0 200 200" xml:space="preserve">
<g>
	<g>
		<path fill="#FFFFFF" d="M121.1,77c0,16.5-0.1,33,0.1,49.5c0,2.5,1.2,5.5,2.9,7.3c11.5,11.8,14.3,28.3,6.9,42.2
			c-7.4,13.8-22.9,21-38.5,17.8c-15.2-3-26.7-16.3-27.7-32.5c-0.6-10.5,2.9-19.7,10.7-27c2.4-2.3,3.3-4.5,3.3-7.8
			c-0.1-33-0.1-66,0-98.9c0-14.5,11.5-24.1,25.4-21.7C114,7.6,121,16.2,121.1,27C121.2,43.6,121.1,60.3,121.1,77z M91.8,81.9
			c0,17.3-0.1,34.6,0.1,51.9c0,3.3-0.7,5.3-3.8,7.2c-8.5,5.3-12,15.4-9.1,24.8c2.8,9.1,11.4,15.5,21,15.6
			c9.5,0.1,18.6-6.7,21.3-15.9c2.7-9.3-1-19.5-9.6-24.7c-2.9-1.8-3.6-3.7-3.6-6.8c0.1-34.3,0.1-68.6,0-102.9c0-1.8,0.1-3.7-0.3-5.5
			c-0.7-3.9-3.5-6.2-7.2-6.5c-3.8-0.3-6.8,1.6-8,5.4c-0.6,1.8-0.7,3.9-0.7,5.9C91.8,47.6,91.8,64.8,91.8,81.9z"/>
		<path fill="#FFFFFF" d="M103.8,85.9c0,18.2,0,36.3,0,54.5c0,2.6,0.5,4.1,3.1,5.4c7,3.6,9.8,10.3,7.9,17.6
			c-1.8,6.6-7.9,11.3-14.8,11.3c-7.1-0.1-13.1-4.9-14.7-12c-1.6-6.9,1.3-13.5,8.3-16.9c3-1.4,3-3.4,3-6c0-35.8,0-71.7,0-107.5
			c0-1.3-0.4-2.9,0.1-4c0.7-1.6,2.2-2.8,3.3-4.2c1.3,1.4,2.9,2.7,3.8,4.3c0.6,1,0.1,2.6,0.1,3.9C103.8,50.3,103.8,68.1,103.8,85.9z"
			/>
	</g>
</g>
</svg>
